<?xml version="1.0" encoding="utf-8"?>
<!-- Generator: Adobe Illustrator 24.3.0, SVG Export Plug-In . SVG Version: 6.00 Build 0)  -->
<svg version="1.1" id="Capa_1" xmlns="http://www.w3.org/2000/svg" xmlns:xlink="http://www.w3.org/1999/xlink" x="0px" y="0px"
	 viewBox="0 0 100 102.2" style="enable-background:new 0 0 100 102.2;" xml:space="preserve">
<style type="text/css">
	.st0{fill:#FFFFFF;}
</style>
<path class="st0" d="M60.4,26.5l0-0.3c0-0.3,0.1-0.5,0.1-0.8c0.1-0.8,0.1-1.7,0-2.5c-0.1-0.9-0.3-1.8-0.6-2.7
	c-0.1-0.4-0.4-0.5-0.8-0.4c-0.1,0-0.2,0-0.3,0.1c0.1-0.1,0.2-0.2,0.4-0.3c0.2-0.2,0.3-0.5,0.1-0.8c-0.8-1.6-1.9-3-3.3-4.2
	c-0.2-0.2-0.5-0.3-0.8-0.2c0,0-0.1,0-0.2,0c0-0.1,0-0.1,0-0.2c0-0.2-0.1-0.5-0.4-0.7c-1.1-0.7-2.3-1.2-3.5-1.5
	c-0.3-0.1-0.5,0-0.6,0.2c-0.1-0.2-0.3-0.4-0.5-0.4c-0.1,0-0.3,0-0.4,0c-0.3,0-0.6-0.1-0.9-0.1c-1.6-0.1-3.2,0.2-4.7,0.7
	c-0.4,0.2-0.7,0.3-0.6,0.9c0,0.3,0.1,0.6,0.1,0.9c-0.1-0.1-0.1-0.2-0.2-0.3c-0.1-0.2-0.2-0.3-0.4-0.5c-0.2-0.2-0.5-0.3-0.7-0.1
	c-2.6,1.4-4.5,3.4-5.7,6.1c-0.1,0.2-0.1,0.4,0,0.6c-0.2,0.1-0.3,0.2-0.4,0.5c-0.3,0.9-0.5,1.8-0.6,2.7c-0.1,1.3-0.1,2.6,0.2,4
	c0.1,0.3,0.2,0.4,0.5,0.5c-0.3,0.2-0.2,0.6-0.2,0.7c0.4,1.2,1,2.4,1.7,3.4c0.7,1,1.5,1.8,2.4,2.5c0.3,0.2,0.5,0.3,0.8,0.2
	c0,0.3,0.2,0.5,0.5,0.7c1.6,1,3.2,1.6,4.8,1.8c0.7,0.1,1.3,0.2,2,0.2c0.6,0,1.1,0,1.7-0.1c1.4-0.2,2.7-0.6,3.9-1.2
	c0.4-0.2,0.4-0.5,0.3-0.7c0,0,0-0.1,0-0.1c0.3,0.3,0.7,0.4,1,0.1l0.3-0.3c0.3-0.2,0.7-0.5,1-0.8c1.8-1.6,3.1-3.5,3.8-5.8
	c0.1-0.3,0-0.5-0.2-0.8c-0.1-0.1-0.1-0.1-0.2-0.2c0.1,0,0.2,0,0.2-0.1C60.2,27,60.4,26.7,60.4,26.5z M59.4,25.8l0,0.3
	c-0.1,0-0.2,0-0.3,0.1c-0.1,0-0.2,0.1-0.4,0.1c-0.3,0.1-0.5,0.3-0.6,0.5c-0.1,0.2,0,0.5,0.2,0.7c0.2,0.2,0.4,0.3,0.5,0.5l0,0
	c-0.6,1.8-1.6,3.4-3,4.8c-0.3,0.3-0.7,0.6-1,0.8c-0.1,0.1-0.2,0.2-0.4,0.3l-0.2-0.2c-0.2-0.3-0.5-0.7-0.7-1
	c-0.2-0.3-0.4-0.6-0.7-0.9c-0.1-0.2-0.4-0.2-0.4-0.2c-0.2,0-0.3,0-0.5,0.1c-0.1,0.1-0.2,0.3-0.2,0.4c0,0.2,0,0.4,0.1,0.6
	c0.2,0.5,0.4,1.1,0.6,1.6l0.2,0.5c-0.5,0.2-1.1,0.4-1.6,0.6c-1.2,0.3-2.4,0.5-3.6,0.4c-2.1-0.1-3.9-0.7-5.6-1.7
	c0-0.1,0.1-0.3,0.1-0.4c0-0.3-0.1-0.5-0.3-0.6c-0.2-0.1-0.4-0.2-0.7-0.1c-0.1,0-0.3,0.1-0.5,0.1c-1-0.8-1.9-1.9-2.6-3
	c-0.4-0.6-0.7-1.2-0.9-2l1.1-0.4c0.4-0.2,0.9-0.3,1.3-0.5c0.2-0.1,0.3-0.1,0.4-0.2c0.1-0.1,0.2-0.3,0.2-0.5c0-0.3-0.2-0.5-0.5-0.5
	c-0.2,0-0.4,0-0.5,0c-0.4,0-0.8,0.1-1.2,0.2L37,26.2c-0.1,0-0.3,0-0.4,0l0,0c-0.3-0.9-0.2-3.9,0.3-5.3l0.7,0.1
	c0.3,0.1,0.6,0,0.7-0.3c0.2-0.2,0.1-0.5-0.1-0.7c-0.2-0.2-0.4-0.5-0.7-0.7c1.1-2.2,2.6-3.9,4.7-5.1c0,0.1,0.1,0.1,0.1,0.2l1.2,2.1
	c0.1,0.1,0.2,0.3,0.3,0.4c0.1,0.1,0.4,0.2,0.6,0.2c0.2-0.1,0.4-0.3,0.4-0.5c0-0.3,0-0.6,0-0.8c-0.1-0.5-0.2-1-0.3-1.5l-0.1-0.7
	c0-0.1,0-0.2,0-0.2c0.1,0,0.1,0,0.2-0.1c1.4-0.4,2.8-0.5,4.2-0.5c0.2,0,0.3,0,0.5,0c0,0,0.1,0,0.1,0c0,0.1,0,0.1,0,0.2l-0.1,2.2
	c0,0.1,0,0.2,0,0.3l0,0.1c0,0.3,0.2,0.5,0.4,0.6c0.3,0.1,0.6-0.1,0.7-0.4c0.1-0.4,0.3-0.7,0.4-1.1c0.1-0.4,0.2-0.8,0.4-1.2l0.1-0.2
	c0.2,0.1,0.4,0.1,0.5,0.2c0.8,0.3,1.5,0.6,2.2,1.1c0,0.1,0,0.1,0,0.2c0,0.1,0,0.2,0,0.3c0.1,0.2,0.2,0.4,0.4,0.5
	c0.2,0.1,0.4,0.1,0.6,0.1c0.3-0.1,0.5,0,0.8,0.2c1.1,1,1.9,2.1,2.5,3.2l-0.4,0.3c-0.3,0.2-0.6,0.4-0.9,0.6c-0.3,0.3-0.7,0.5-1,0.8
	l-0.1,0c-0.1,0.1-0.1,0.1-0.2,0.2c-0.1,0.2-0.1,0.4,0,0.6c0.1,0.2,0.3,0.3,0.5,0.3c0.2,0,0.4,0,0.6-0.1c0.5-0.2,1-0.3,1.5-0.5
	l0.7-0.2c0,0,0.1,0,0.1,0c0,0.1,0,0.2,0.1,0.3c0.1,0.5,0.2,0.9,0.3,1.4c0.1,0.6,0.1,1.2,0.1,2C59.5,25.1,59.4,25.4,59.4,25.8z"/>
<path class="st0" d="M51.2,21.2c-0.2-0.6-0.5-0.8-1.1-0.8c-0.1,0-0.2,0-0.4-0.1c-0.6-0.3-1.3-0.4-1.9-0.3c-1,0-1.9,0.4-2.6,1
	c-0.2,0.2-0.2,0.2-0.4,0.1c-0.3-0.1-0.5,0-0.7,0.1c-0.2,0.2-0.3,0.5-0.2,0.8c0,0.1,0.1,0.2,0.1,0.3c0,0,0,0.1,0,0.1
	c-0.4,0.9-0.5,1.8-0.4,2.7c0.1,0.8,0.4,1.4,0.9,2c-0.1,0.2-0.2,0.4-0.3,0.6c-0.1,0.3,0,0.5,0.2,0.7c0.1,0.1,0.4,0.2,0.7,0
	c0.2-0.1,0.4-0.2,0.6-0.3c0.6,0.4,1.3,0.6,2.1,0.6c0.2,0,0.4,0,0.6,0c1.2-0.1,2.3-0.7,3-1.7c0.6-0.8,0.9-1.7,0.9-2.6v0
	c0-1.1-0.4-1.9-1-2.7C51.3,21.4,51.2,21.3,51.2,21.2z M51,25.1c-0.2,0.9-0.8,1.6-1.6,2c-1.1,0.6-2.2,0.5-3.3-0.1
	c-0.1-0.1-0.3-0.1-0.4-0.1c0,0,0,0-0.1,0c-0.1-0.2-0.2-0.4-0.3-0.5c-0.6-0.7-0.9-1.6-0.7-2.6c0.1-0.3,0.2-0.7,0.3-1
	c0.1-0.2,0.1-0.3,0.1-0.5c0.2,0,0.3-0.1,0.4-0.2c0.5-0.5,1-0.8,1.6-0.9c0.6-0.1,1.2-0.1,1.9,0.1c0.2,0.1,0.4,0.1,0.6,0.2
	c0.1,0,0.2,0,0.3,0.1c0.1,0.3,0.3,0.5,0.5,0.8c0.1,0.1,0.1,0.2,0.2,0.2C51.1,23.3,51.3,24.2,51,25.1z"/>
<path class="st0" d="M43.9,43c-0.4,0-1,0.3-1.4,1.5c-0.2,0.7-0.2,1.5-0.1,2.4c0.1,0.9,0.4,1.6,0.8,1.9c0.4,0.3,0.8,0.4,1.1,0.4
	c0.2,0,0.3,0,0.3,0c2-0.3,1.7-2.2,1.6-2.8c-0.1-0.9-0.4-1.7-0.7-2.3C45,43,44.3,43,43.9,43z M44.5,47.8c-0.3,0-0.3,0-0.4,0
	c-0.1,0-0.2-0.3-0.3-1.1c-0.2-1.3,0.1-2.1,0.3-2.3c0.2,0.2,0.7,0.9,0.8,2.1C45.1,47.8,44.8,47.8,44.5,47.8z"/>
<path class="st0" d="M63.8,36.3c-0.1,0.6-0.4,2.6,1.5,2.9c0.2,0,0.3,0,0.4,0c1.6,0,1.9-1.7,2-2.3c0.3-1.7,0-3.7-1.3-4
	C65.1,32.8,64.1,34.5,63.8,36.3z M66.3,36.7c-0.2,1.2-0.4,1.1-0.8,1.1c-0.3-0.1-0.5-0.1-0.3-1.3c0.2-1.2,0.7-1.9,0.9-2.1
	C66.3,34.6,66.5,35.4,66.3,36.7z"/>
<path class="st0" d="M90.5,50.9c-0.4,0.5-1.6,2-0.1,3.3c0.2,0.1,0.6,0.5,1.2,0.5c0.1,0,0.2,0,0.3,0c0.6-0.1,1.1-0.5,1.7-1.2
	c0,0,0,0,0,0c1.1-1.4,1.8-3.2,0.8-4.1C93.3,48.4,91.6,49.5,90.5,50.9z M92.4,52.5c-0.5,0.6-0.8,0.7-0.8,0.7c0,0-0.1,0-0.3-0.2
	c-0.2-0.2-0.4-0.4,0.3-1.3c0.8-1,1.6-1.3,1.8-1.4C93.4,50.7,93.2,51.5,92.4,52.5z"/>
<path class="st0" d="M13.5,34.2c-1.1-0.6-1.7-0.4-2-0.1c-0.3,0.2-0.8,0.8-0.5,2c0.2,0.7,0.5,1.5,1.1,2.2c0.6,0.8,1.1,1.2,1.6,1.3
	c0.1,0,0.2,0,0.4,0c0.6,0,1-0.3,1.1-0.4c1.6-1.2,0.4-2.7,0.1-3.3C14.7,35.1,14.1,34.5,13.5,34.2z M14.3,37.9
	c-0.2,0.2-0.3,0.1-0.3,0.1c-0.1,0-0.3-0.1-0.8-0.8c-0.7-1-0.9-1.9-0.9-2.1c0.3,0,1,0.4,1.8,1.5C14.8,37.6,14.6,37.8,14.3,37.9z"/>
<circle class="st0" cx="54.1" cy="56.8" r="1"/>
<circle class="st0" cx="57.6" cy="58.3" r="1"/>
<circle class="st0" cx="54.8" cy="53.4" r="1"/>
<circle class="st0" cx="59.5" cy="61.9" r="1"/>
<circle class="st0" cx="54.5" cy="62.1" r="1"/>
<path class="st0" d="M70,20.1c2.1-1.6,3.4-4.1,3.6-6.7c0-0.8,0-1.7-0.2-2.6c-0.5-2.7-1.7-4.9-3.4-6.2c-0.2-0.1-0.4-0.2-0.6-0.1
	c-1.6,0.4-3.1,1.5-4.4,3.3c-1.4,1.9-2.7,6.1-1.1,9.7c0.5,1.1,1.5,2.6,2.8,3.3c0.3,0.2,0.6,0.3,0.8,0.3c-0.4,1.6-1,3.1-1.9,4.5
	c-0.2,0.3-0.1,0.8,0.2,1c0.1,0.1,0.3,0.1,0.4,0.1c0.2,0,0.5-0.1,0.6-0.3c1.1-1.7,1.8-3.6,2.3-5.5C69.4,20.6,69.7,20.4,70,20.1z
	 M68.3,11c0,0.1,0.4,4.3-0.5,8.7c-0.2,0-0.3,0-0.5-0.1c-0.8-0.5-1.7-1.6-2.2-2.6c-1.3-3-0.2-6.7,0.9-8.3c0.7-0.9,1.8-2.1,3.3-2.7
	c1.3,1.1,2.2,2.9,2.6,5.1c0.2,0.8,0.2,1.6,0.2,2.3c0,0,0,0,0,0c-0.1,2.1-1.1,4-2.7,5.4c0.7-4.1,0.4-7.7,0.3-7.9
	c0-0.4-0.4-0.7-0.8-0.6C68.6,10.3,68.3,10.6,68.3,11z"/>
<path class="st0" d="M26.8,24.3c0.3-0.3,0.2-0.7,0-1L13.5,10.9c-0.3-0.3-0.7-0.3-1,0c-1.7,1.8-2.7,4.2-2.7,6.8
	c0,5.4,4.4,9.8,9.8,9.8C22.3,27.5,25,26.3,26.8,24.3z M20.4,20.1c0.7,0.7,2.3,2.1,2.4,2.3c0,0,0.1,0.1,0,0.2c0,0.1-0.1,0.2-0.2,0.3
	c-0.6,0.4-1.1,0.6-1.6,0.7c-0.1,0-0.1,0-0.2,0.1c-0.1,0-0.5,0.1-0.6,0.1c0,0,0,0,0-0.2c0-0.1,0-0.2,0-0.3c0-0.7-0.1-2.2-0.1-3
	c0,0,0,0,0-0.1C20.2,20.2,20.3,20.2,20.4,20.1z M18.5,17.5l1.4,1.3c-0.1,0-0.2,0.1-0.3,0.1c-0.3,0-0.6-0.1-0.8-0.3
	C18.5,18.3,18.4,17.9,18.5,17.5z M18.7,20.1c0,0,0,0.1,0,0.1c0,0.8,0,2.2,0.1,3.2c0,0.1,0,0.2,0,0.2c0,0-0.1,0.1-0.1,0.2
	c-0.1,0.1-0.2,0.1-0.4,0c-0.7-0.2-1.2-0.4-1.6-0.7c-0.1,0-0.1-0.1-0.2-0.1c-0.1-0.1-0.5-0.3-0.5-0.3c0,0,0,0,0.1-0.1
	c0.1-0.1,0.3-0.3,0.5-0.5c0.7-0.7,1.6-1.7,1.9-2.1C18.5,20,18.6,20.1,18.7,20.1z M17.4,19c-0.4,0.4-1.3,1.4-2,2.1
	c-0.2,0.2-0.4,0.4-0.5,0.5c-0.1,0.1-0.1,0.1-0.1,0.1c-0.1-0.1-0.3-0.4-0.4-0.5c0-0.1-0.1-0.1-0.1-0.2c-0.3-0.4-0.5-0.9-0.7-1.6
	c-0.1-0.2-0.1-0.3,0-0.4c0.1-0.1,0.2-0.2,0.2-0.2c0,0,0.2,0,0.3,0c0.1,0,0.1,0,0.2,0c0.9,0,2.2-0.1,2.9-0.1c0.1,0,0.1,0,0.2,0
	C17.3,18.9,17.4,19,17.4,19z M14.5,14.8C14.5,14.8,14.6,14.8,14.5,14.8c0.2,0,0.2,0,0.2,0c0.2,0.2,1.7,1.6,2.4,2.3
	c0,0.1-0.1,0.2-0.1,0.4c0,0,0,0-0.1,0c-0.8,0-2.3,0.1-3,0.1c-0.1,0-0.2,0-0.3,0c-0.1,0-0.1,0-0.1,0c0,0,0,0,0,0c0-0.1,0-0.5,0.1-0.6
	c0-0.1,0-0.2,0-0.2c0.1-0.5,0.3-1,0.6-1.6C14.3,14.9,14.4,14.8,14.5,14.8z M11.2,17.7c0-1.9,0.7-3.8,1.9-5.3l1.1,1
	c-0.5,0.1-0.9,0.5-1.2,1c-0.4,0.8-0.6,1.4-0.7,2l0,0.2c-0.1,0.4-0.3,1.1,0.1,1.7c-0.3,0.5-0.4,1-0.2,1.6c0.3,0.8,0.6,1.4,0.9,1.9
	l0.1,0.1c0.2,0.4,0.6,1,1.4,1.1c0.2,0.6,0.8,1,1.2,1.2l0.1,0.1c0.5,0.3,1.2,0.6,2,0.8c0.2,0.1,0.4,0.1,0.6,0.1c0.4,0,0.7-0.1,1-0.3
	c0.2,0.1,0.5,0.2,0.8,0.2c0.4,0,0.7-0.1,1-0.2l0.2,0c0.6-0.1,1.2-0.4,2-0.8c0.5-0.3,0.8-0.7,0.9-1.2l1,1c-1.5,1.4-3.6,2.2-5.7,2.2
	C15,26.1,11.2,22.3,11.2,17.7z"/>
<path class="st0" d="M76.9,16.4c0,0,0.1,0,0.1-0.1C77,16.3,77,16.3,76.9,16.4C77,16.3,76.9,16.3,76.9,16.4z"/>
<path class="st0" d="M84.9,11.2c0,0,0.1,0,0.1-0.1C85,11.1,85,11.1,84.9,11.2C84.9,11.1,84.9,11.1,84.9,11.2z"/>
<path class="st0" d="M95.1,20.5c0.1-0.1,0.3-0.2,0.4-0.3c-0.2-0.2-0.6-0.2-0.9-0.1c-0.6,0.1-1.2,0.1-1.8,0.2
	c0.2-0.2,0.3-0.4,0.5-0.6c-0.5-0.2-1.1-0.1-1.6,0.1c-0.6,0.2-1.3,0.4-1.8,0.7c0.1-1.3,0.1-2.5,0-3.6c0.3-0.9,0.5-1.7,0.7-2.6
	c0.1-0.3,0.1-0.6,0.2-0.8c0-0.6-0.2-1.2-0.6-1.7c-0.6,0.5-1,1.1-1.4,1.7c-0.2-1.2,0.3-2.5-0.2-3.6c-0.4,0.4-0.7,0.8-0.8,1.3
	c-0.1-0.7-0.2-1.5-0.3-2.2C87.5,9,87.3,9,87.2,9c-0.2-0.7-0.6-1.3-1-1.8c0.2,0.5,0.1,1.1-0.1,1.7c0,0.1-0.1,0.2-0.1,0.4
	c0,0.1,0,0.2,0.1,0.3c0.1,0.5,0.3,0.9,0.4,1.4c-0.5-0.1-1,0-1.4,0.2c0,0,0,0.1,0.1,0.1c0.2,0.7,0.6,1.3,1.1,1.8
	c0.3,0.3,0.8,0.7,0.9,1.1c-0.7,0.1-1.4-0.1-1.9-0.5c-0.1-0.1-0.2-0.2-0.4-0.2c-0.3,0.1-0.2,0.4,0,0.6c0.7,0.9,1.5,1.6,2.4,2.3
	c0.2,0.2,0.5,0.4,0.7,0.6c0.2,0.2,0.5,0.4,0.7,0.6c0,0.6,0.1,1.2,0,1.8c-0.1-0.1-0.1-0.3-0.2-0.4c-0.3-0.5-0.6-1.1-1.2-1.3
	c0,0.3,0,0.6,0,0.9c-0.4-0.5-0.8-1-1.2-1.5c-0.2-0.3-0.5-0.6-0.8-0.6c0.1,0.2,0.1,0.4,0.1,0.6c-0.7-0.1-1.3-0.5-1.8-1
	c-0.1,0.2,0,0.5,0.1,0.7c0.4,0.7,0.8,1.3,1.3,1.9c-0.2,0.1-0.5,0.2-0.7,0.1c-0.1,0.2,0.1,0.4,0.2,0.5c0.8,0.6,1.9,0.4,2.5,1.1
	c-0.4,0.2-0.8,0.4-1.2,0.6c-0.2,0.1-0.4,0.2-0.4,0.4c0,0.1,1.9,0.3,2.1,0.3c0.2,0,0.5,0.1,0.8,0.2c-0.2,0.9-0.4,1.9-0.6,2.9
	c-0.3,0.1-0.5,0.1-0.7-0.1c0.1-0.2,0.2-0.4,0.3-0.5c-0.1-0.1-0.4,0-0.6,0.2c-0.4,0.3-0.8,0.6-1.2,1c0.1-0.3,0.3-0.6,0.4-0.9
	c-0.3-0.1-0.7,0.3-1.1,0.7c-0.5,0.5-1.1,1.2-1.6,2c-0.2-1.8-0.6-3.5-1.3-4.9c0.3-0.9,0.5-1.8,0.7-2.7c0.1-0.3,0.1-0.6,0.2-0.8
	c0-0.6-0.2-1.2-0.6-1.7c-0.6,0.5-1,1.1-1.4,1.7c-0.2-1.2,0.3-2.5-0.2-3.6c-0.4,0.4-0.7,0.8-0.8,1.3c-0.1-0.7-0.2-1.5-0.3-2.2
	c-0.1,0.1-0.3,0.1-0.4,0.1c-0.2-0.7-0.6-1.3-1-1.8c0.2,0.5,0.1,1.1-0.1,1.7c0,0.1-0.1,0.2-0.1,0.4c0,0.1,0,0.2,0.1,0.3
	c0.1,0.5,0.3,0.9,0.4,1.4c-0.5-0.1-1,0-1.4,0.2c0,0,0,0.1,0.1,0.1c0.2,0.7,0.6,1.3,1.1,1.8c0.3,0.3,0.8,0.7,0.9,1.1
	c-0.7,0.1-1.4-0.1-1.9-0.5c-0.1-0.1-0.2-0.2-0.4-0.2c-0.3,0.1-0.2,0.4,0,0.6c0.7,0.9,1.5,1.6,2.4,2.3c0.2,0.2,0.5,0.4,0.7,0.6
	c0.3,0.2,0.5,0.5,0.7,0.7c0.4,0.8,0.7,1.8,0.9,2.8c-0.2-0.4-0.4-0.8-0.6-1.1c-0.4-0.6-0.8-1.3-1.5-1.5c0,0.3,0,0.7,0,1
	c-0.5-0.6-1.1-1.2-1.6-1.8c-0.3-0.3-0.6-0.7-1-0.7c0.1,0.2,0.2,0.4,0.2,0.7c-0.8-0.2-1.6-0.6-2.2-1.3c-0.1,0.3,0,0.6,0.2,0.8
	c0.5,0.8,1,1.5,1.7,2.2c-0.3,0.1-0.6,0.2-0.9,0.1c-0.1,0.2,0.1,0.5,0.3,0.6c1,0.7,2.4,0.5,3.2,1.4c-0.5,0.2-1,0.4-1.5,0.7
	c-0.2,0.1-0.5,0.3-0.4,0.5c0,0.1,2.4,0.4,2.6,0.4c0.5,0.1,1.3,0.4,1.9,0.5c0.2,4-0.8,8.5-1.6,11.7c-1.7-0.2-4.9-0.1-7.5,1.8
	c-2.4,1.7-3.7,4.6-4,8.5c-0.2,2.9-0.8,6.1-1.4,9.6c-0.2,1.2-0.4,2.4-0.6,3.6h-4.6c0.6-4.1-1.5-8.1-3.5-10.8
	c-0.3-0.4-0.4-1.1-0.6-1.7c-0.2-0.8-0.4-1.7-1.1-1.9c-0.8-0.3-1.7,0.2-2.5,0.7c-0.6,0.3-1.2,0.7-1.9,0.9c-3,1-8.2,3.3-9.9,7.9
	c-0.5,1.5-0.8,3.1-0.7,4.8h-7c0.5-0.5,1-1,1.5-1.6c0.9-1.1,1.6-2.3,2-3.6c0.8-2.3,0.9-4.8,0.4-7.6c-0.2-1-0.5-2-0.9-3.1
	c-0.5-1.3-1.1-2.4-1.7-3.5c-1.2-1.9-2.7-3.2-4.5-3.9c-2.4-1-4.6-1.1-6.7-0.3c-0.5,0.2-1.3,0.6-1.9,1.3c-0.4,0.4-0.8,0.9-1.2,1.3
	c-0.1,0.1-0.2,0.2-0.3,0.3c-0.1-0.3-0.1-0.5-0.2-0.8c-0.1-0.3-0.1-0.7,0-1c0.1-0.4,0.2-0.7,0.2-1.1c0.1-0.4-0.1-0.8-0.4-1.1
	c-0.2-0.2-0.4-0.2-0.7-0.2c-0.2,0-0.4,0.2-0.5,0.4c-0.1,0.2-0.2,0.4-0.2,0.7c0.1,1.2,0.2,2.3,0.5,3.3l0.1,0.3c0,0,0,0-0.1,0
	C20,43,19.8,43,19.5,42.9c-0.3-0.1-0.6-0.2-0.8-0.2c-0.1,0-0.2-0.1-0.4-0.1c-0.4-0.1-0.8-0.2-1.2-0.2c-1.2-0.1-2.4,0.2-3.6,0.9
	c-1.4,0.8-2.6,2-3.6,3.5c-0.9,1.4-1.3,3-1.4,4.9c-0.1,2.3,0.3,4.6,1.1,6.9c0.4,1.2,1,2.3,1.6,3.3c0.3,0.5,0.7,1,1.1,1.5h-0.8
	c-0.4,0-0.7,0.3-0.7,0.7c0,2.7,0.4,5.3,1.1,7.8c0,0,0,0,0,0c4,14.1,18.4,24.6,35.6,24.6c20.2,0,36.7-14.5,36.7-32.4
	c0-0.4-0.3-0.7-0.7-0.7h-3.9c1.6-2.6,3.2-5.1,4.8-7.2c2.4-3.1,3.3-6.1,2.7-9c-0.7-3.4-3.3-5.7-4.7-6.6c0.6-1.1,1.3-2.3,2-3.7
	c0.7-1,1.5-2,2.3-2.8c0.4,0.2,0.8,0.4,1.2,0.6c0.2,0.1,1.6,1.1,1.7,1.1c0.1-0.1,0.1-0.3,0-0.5c-0.2-0.4-0.3-0.7-0.5-1.1
	c0.9-0.1,1.6,0.7,2.4,0.8c0.2,0,0.4,0,0.5-0.2c-0.2-0.1-0.3-0.3-0.4-0.5c0.7,0,1.4-0.1,2-0.3c0.2-0.1,0.4-0.2,0.5-0.4
	c-0.6,0.1-1.3-0.1-1.9-0.4c0.1-0.1,0.3-0.2,0.4-0.3c-0.2-0.2-0.6-0.2-0.9-0.1c-0.6,0.1-1.2,0.1-1.8,0.2c0.2-0.2,0.3-0.4,0.5-0.6
	c-0.5-0.2-1.1-0.1-1.6,0.1c-0.1,0-0.2,0.1-0.3,0.1c0.6-0.4,1.2-0.7,1.9-0.9c0,0,0.1,0,0.1,0c0.2,0,0.4,0,0.7,0
	c0.8,0.1,1.7,0.1,2.5,0c0.2,0,0.4-0.2,0.3-0.4c-0.1-0.1-0.2-0.1-0.3-0.1c-0.5,0-1-0.2-1.3-0.7c0.3-0.2,0.7-0.1,1.1-0.2
	c0.5,0,1-0.2,1.5-0.5c0,0,0.1,0,0.1,0c-0.1-0.3-0.4-0.6-0.7-0.8c0.3-0.2,0.6-0.4,0.9-0.6c0.1,0,0.1-0.1,0.2-0.2
	c0.1-0.1,0.1-0.2,0.1-0.3c0.2-0.4,0.4-0.7,0.8-1c-0.5,0.1-1,0.2-1.5,0.5c-0.1,0-0.2-0.1-0.2-0.2c-0.4,0.4-0.8,0.7-1.3,1.1
	c0.2-0.3,0.2-0.7,0.2-1.1c-0.8,0.4-1.2,1.3-1.9,1.9c0.1-0.5,0.1-1.1,0.1-1.7c-0.5,0.1-0.9,0.3-1.2,0.7c-0.1,0.2-0.2,0.4-0.3,0.5
	c-0.3,0.5-0.6,1.1-0.8,1.6c-1.1,0.4-2.1,1.1-3.1,2c1.5-3.5,2.8-7.2,3.3-10.7c0.3,0.2,0.7,0.3,0.9,0.5c0.2,0.1,1.6,1.1,1.7,1.1
	c0.1-0.1,0.1-0.3,0-0.5c-0.2-0.4-0.3-0.7-0.5-1.1c0.9-0.1,1.6,0.7,2.4,0.8c0.2,0,0.4,0,0.5-0.2c-0.2-0.1-0.3-0.3-0.4-0.5
	c0.7,0,1.4-0.1,2-0.3c0.2-0.1,0.4-0.2,0.5-0.4C96.3,21,95.6,20.9,95.1,20.5z M43.9,59.1c1.6-4.2,6.9-6.4,9.1-7.1
	c0.8-0.3,1.5-0.7,2.1-1.1c0.5-0.3,1.1-0.7,1.3-0.6c0.1,0.1,0.2,0.6,0.3,1c0.1,0.7,0.3,1.5,0.8,2.2c1.8,2.5,3.8,6.3,3.2,9.9H43.3
	C43.3,61.9,43.5,60.4,43.9,59.1z M12.3,61.3c-0.6-1-1.2-2.1-1.6-3.5c-0.6-1.8-0.9-3.6-0.9-5.4c0-1.6,0.2-2.9,0.7-4
	c0.9-1.9,2.2-3.3,3.9-4.2c0.8-0.4,1.7-0.6,2.7-0.6c0.2,0,0.5,0.1,0.8,0.2c0.1,0,0.2,0.1,0.3,0.1c0.3,0.1,0.5,0.2,0.8,0.2
	c0.4,0.1,0.8,0.2,1.2,0.3c0.8,0.2,1.6,0,2.2-0.6c0.5-0.5,1-1,1.5-1.6c0.4-0.5,1.1-0.9,1.9-1.2c1.9-0.6,3.9-0.4,6,0.6
	c1.3,0.6,2.3,1.6,3.3,3.1c0.9,1.3,1.6,2.9,2.2,4.9c0.6,2.1,0.7,4.1,0.5,5.9c-0.2,1.7-0.8,3.3-1.8,4.7c-0.9,1.3-1.9,2.3-3,3.2H14.1
	C13.4,62.8,12.8,62.1,12.3,61.3z M47.5,95.1c-16.2,0-29.9-9.7-34-22.8h67.9C77.4,85.5,63.7,95.1,47.5,95.1z M82.7,64.8
	c-0.1,2.1-0.3,4.1-0.9,6.1H13.1c-0.5-2-0.8-4-0.9-6.1H82.7z M85.7,47.5c0.5,2.5-0.3,5.1-2.5,7.9c-1.7,2.2-3.4,5-5.2,7.8l-0.1,0.2
	h-9.7c0.2-1.1,0.4-2.2,0.6-3.4c0.6-3.5,1.2-6.8,1.4-9.8c0.3-3.5,1.4-6,3.4-7.5c2.1-1.6,4.7-1.7,6.3-1.6c-0.3,1.1-0.6,1.9-0.7,2.3
	c0,0-0.1,0.1-0.1,0.1c-0.3-0.2-0.5-0.5-0.5-0.5c-0.2-0.3-0.7-0.4-1-0.2c-0.3,0.2-0.4,0.7-0.2,1c0.1,0.1,1.1,1.7,3.2,1.7
	c0.3,0,0.6,0,0.9-0.1c0.4-0.1,0.6-0.5,0.5-0.8c-0.1-0.4-0.5-0.6-0.8-0.5c-0.3,0.1-0.5,0.1-0.8,0c0,0,0-0.1,0.1-0.1
	c0.3-0.5,0.8-1.3,1.3-2.2C82.9,42.7,85.2,44.7,85.7,47.5z M85.9,30c0-0.2-0.1-0.4-0.1-0.6c0-0.2-0.1-0.4-0.2-0.4
	c0,0.1,0,0.3-0.1,0.5c-0.3,0-0.5-0.3-0.6-0.7c-0.1,0.2-0.1,0.4-0.1,0.6c0,0.5,0.1,1,0.2,1.4c-0.1,0.1-0.3,0.2-0.4,0.2
	c-0.1,0.2-0.1,0.3,0,0.4c0.1,0.2,0.4,0.3,0.6,0.4c-0.1,0.3-0.3,0.6-0.4,0.9c0,0,0,0,0,0c-0.1,0.1-0.2,0.2-0.3,0.4c0,0,0,0,0.1,0
	c-0.5,1.1-1,2.2-1.5,3.2c-0.3,0.4-0.6,0.8-0.8,1.2c0.6-2.8,1.1-6.1,1-9.3c0.2,0.1,0.3,0.1,0.5,0.2c0.1,0.1,0.9,0.8,1,0.7
	c0.1-0.2,0.1-0.4,0.1-0.6c-0.1-0.4-0.1-0.8-0.2-1.2c0.6-0.4,1,0.3,1.6,0.1c0.1,0,0.3-0.2,0.4-0.4c-0.1-0.1-0.2-0.3-0.2-0.5
	c0.4-0.2,0.8-0.6,1.1-0.9C87,27,86.5,28.6,85.9,30z"/>
<path class="st0" d="M95.2,29.8C95.2,29.8,95.2,29.8,95.2,29.8C95.2,29.9,95.2,29.9,95.2,29.8C95.3,29.9,95.3,29.8,95.2,29.8z"/>
</svg>
